<?xml version="1.0" encoding="UTF-8"?><svg id="Calque_1" xmlns="http://www.w3.org/2000/svg" viewBox="0 0 498.06 472.22"><defs><style>.cls-1{fill:#000;stroke-width:0px;}</style></defs><path class="cls-1" d="M.03,319.33h73.54c0,55.48,67.09,92.9,168.37,92.9,116.76,0,183.21-23.87,183.21-76.77,0-138.05-413.52,8.39-413.52-196.76C11.64,47.74,107.12,0,244.53,0c147.09,0,244.5,59.35,245.79,152.89h-74.19c.65-56.77-67.09-92.9-167.73-92.9s-163.21,23.87-163.21,70.32c0,127.73,412.87-10.97,412.87,201.92,0,92.25-102.57,139.99-250.95,139.99S-1.91,410.29.03,319.33Z"/></svg>